<?xml version="1.0" encoding="UTF-8" standalone="no"?>
<!-- Created with Inkscape (http://www.inkscape.org/) -->

<svg
   width="575"
   height="575"
   viewBox="-11 -14 162.82862 162.82862"
   version="1.1"
   id="svg1"
   xml:space="preserve"
   inkscape:version="1.3.2 (091e20e, 2023-11-25, custom)"
   sodipodi:docname="Logo-Gradient-.svg"
   inkscape:export-filename="Logo-Gradient-.png"
   inkscape:export-xdpi="96"
   inkscape:export-ydpi="96"
   xmlns:inkscape="http://www.inkscape.org/namespaces/inkscape"
   xmlns:sodipodi="http://sodipodi.sourceforge.net/DTD/sodipodi-0.dtd"
   xmlns:xlink="http://www.w3.org/1999/xlink"
   xmlns="http://www.w3.org/2000/svg"
   xmlns:svg="http://www.w3.org/2000/svg"><sodipodi:namedview
     id="namedview1"
     pagecolor="#ffffff"
     bordercolor="#000000"
     borderopacity="0.25"
     inkscape:showpageshadow="2"
     inkscape:pageopacity="0.0"
     inkscape:pagecheckerboard="0"
     inkscape:deskcolor="#d1d1d1"
     inkscape:document-units="mm"
     inkscape:zoom="1.5170179"
     inkscape:cx="208.63301"
     inkscape:cy="304.87446"
     inkscape:window-width="2560"
     inkscape:window-height="1369"
     inkscape:window-x="2872"
     inkscape:window-y="-8"
     inkscape:window-maximized="1"
     inkscape:current-layer="layer1" /><defs
     id="defs1"><linearGradient
       id="linearGradient79"
       inkscape:collect="always"><stop
         style="stop-color:#38bdf8;stop-opacity:1;"
         offset="0.1"
         id="stop82" /><stop
         style="stop-color:#6366f1;stop-opacity:1;"
         offset="0.24919616"
         id="stop83" /><stop
         style="stop-color:#1f2937;stop-opacity:1;"
         offset="0.49517688"
         id="stop80" /><stop
         style="stop-color:#6366f1;stop-opacity:1;"
         offset="0.75"
         id="stop81" /><stop
         style="stop-color:#38bdf8;stop-opacity:1;"
         offset="0.89999998"
         id="stop79" /></linearGradient><linearGradient
       id="swatch78"><stop
         style="stop-color:#000000;stop-opacity:1;"
         offset="0"
         id="stop78" /></linearGradient><linearGradient
       inkscape:collect="always"
       xlink:href="#linearGradient79"
       id="linearGradient80"
       x1="8.0634031"
       y1="72.689003"
       x2="149.14754"
       y2="72.689003"
       gradientUnits="userSpaceOnUse"
       spreadMethod="reflect"
       gradientTransform="translate(0.186669,0.96511201)" /></defs><g
     inkscape:label="Layer 1"
     inkscape:groupmode="layer"
     id="layer1"
     transform="translate(-8.063449,-3.8705339)"
     style="fill:#000000;fill-opacity:1;stroke:#000000;stroke-width:0.999648;stroke-dasharray:none;stroke-opacity:1"><path
       id="path11"
       style="color:#000000;mix-blend-mode:normal;fill:url(#linearGradient80);fill-opacity:1;stroke:none;stroke-width:0;stroke-dasharray:none;stroke-opacity:1"
       d="m 124.14761,17.877219 -4.25196,5.066407 c 27.08388,22.726066 30.60694,63.005989 7.88086,90.089844 -22.72606,27.08386 -63.004013,30.60692 -90.087888,7.88086 C 10.604754,98.18827 7.0797477,57.910301 29.80581,30.826438 L 24.739403,26.574485 C -0.28448379,56.396789 3.6143591,100.9588 33.436669,125.98269 c 29.822316,25.02389 74.384321,21.12503 99.408201,-8.69727 25.0239,-29.822294 21.12505,-74.384311 -8.69726,-99.408201 z M 47.528466,57.523704 C 39.533744,74.66843 46.985295,95.142277 64.130028,103.13699 L 66.92495,97.140891 C 53.020075,90.656952 47.038653,74.2235 53.522606,60.318626 Z M 31.83706,12.336204 c -5.988347,0 -10.900391,4.91009 -10.900391,10.898437 0,5.988347 4.912044,10.900391 10.900391,10.900391 5.988347,0 10.898437,-4.912044 10.898437,-10.900391 0,-5.988347 -4.91009,-10.898437 -10.898437,-10.898437 z m 0,5.291015 c 3.128519,0 5.607421,2.478903 5.607421,5.607422 0,3.128519 -2.478902,5.607422 -5.607421,5.607422 -3.128519,0 -5.609375,-2.478903 -5.609375,-5.607422 0,-3.128519 2.480856,-5.607422 5.609375,-5.607422 z m 39.763671,-7.035155 c -5.988346,0 -10.898437,4.91009 -10.898437,10.898437 0,5.988347 4.910091,10.90039 10.898437,10.90039 5.988347,0 10.900391,-4.912043 10.900391,-10.90039 0,-5.988347 -4.912044,-10.898437 -10.900391,-10.898437 z m 0,5.291015 c 3.12852,0 5.609375,2.478903 5.609375,5.607422 0,3.128519 -2.480855,5.607421 -5.609375,5.607421 -3.128519,0 -5.607421,-2.478902 -5.607421,-5.607421 0,-3.128519 2.478902,-5.607422 5.607421,-5.607422 z M 117.81948,4.8362058 c -5.98834,0 -10.89843,4.9100902 -10.89843,10.8984352 0,5.988347 4.91009,10.900391 10.89843,10.900391 5.98835,0 10.90039,-4.912044 10.90039,-10.900391 0,-5.988345 -4.91204,-10.8984352 -10.90039,-10.8984352 z m 0,5.2910142 c 3.12852,0 5.60938,2.478902 5.60938,5.607421 0,3.128519 -2.48086,5.609375 -5.60938,5.609375 -3.12852,0 -5.60742,-2.480856 -5.60742,-5.609375 0,-3.128519 2.4789,-5.607421 5.60742,-5.607421 z M 101.0773,38.49636 c -5.988353,0 -10.900397,4.912044 -10.900397,10.900391 0,5.988347 4.912044,10.898437 10.900397,10.898437 5.98834,0 10.89843,-4.91009 10.89843,-10.898437 0,-5.988347 -4.91009,-10.900391 -10.89843,-10.900391 z m 0,5.292969 c 3.12851,0 5.60742,2.478903 5.60742,5.607422 0,3.128519 -2.47891,5.607421 -5.60742,5.607421 -3.128525,0 -5.607428,-2.478902 -5.607428,-5.607421 0,-3.128519 2.478903,-5.607422 5.607428,-5.607422 z M 53.637841,41.113547 c -5.988347,0 -10.900391,4.910091 -10.900391,10.898438 0,5.988347 4.912044,10.900391 10.900391,10.900391 5.988347,0 10.898437,-4.912044 10.898437,-10.900391 0,-5.988347 -4.91009,-10.898437 -10.898437,-10.898438 z m 0,5.291016 c 3.128519,0 5.607422,2.478903 5.607422,5.607422 0,3.128519 -2.478903,5.609375 -5.607422,5.609375 -3.128519,0 -5.607422,-2.480856 -5.607422,-5.609375 0,-3.128519 2.478903,-5.607422 5.607422,-5.607422 z M 32.184716,73.726829 c -5.988347,0 -10.898438,4.912043 -10.898438,10.90039 0,5.988347 4.910091,10.900391 10.898438,10.900391 5.988347,0 10.90039,-4.912044 10.90039,-10.900391 0,-5.988347 -4.912043,-10.90039 -10.90039,-10.90039 z m 0,5.292968 c 3.128519,0 5.607422,2.478903 5.607422,5.607422 0,3.128519 -2.478903,5.607422 -5.607422,5.607422 -3.128519,0 -5.607422,-2.478903 -5.607422,-5.607422 0,-3.128519 2.478903,-5.607422 5.607422,-5.607422 z m 76.115234,-24.238281 -5.72851,3.306641 c 7.67116,13.286851 3.14623,30.18039 -10.14063,37.851562 C 79.143961,103.61088 62.250411,99.08399 54.579247,85.797141 l -5.728516,3.308594 c 9.458555,16.382695 30.504018,22.021045 46.886719,12.562505 16.38271,-9.458567 22.02106,-30.504024 12.5625,-46.886724 z m 18.68555,-4.515625 -6.04297,2.691406 c 10.29535,23.123755 -0.0676,50.120673 -23.191408,60.416013 -23.123764,10.29537 -50.120668,-0.0676 -60.416016,-23.191403 l -6.042968,2.691406 c 11.749341,26.389497 42.760904,38.292327 69.150392,26.542967 26.3895,-11.74933 38.29231,-42.760911 26.54297,-69.150389 z M 79.100731,19.172141 v 6.613281 c 25.312109,1e-6 45.761719,20.449612 45.761719,45.761719 0,25.312109 -20.4496,45.759769 -45.761719,45.759769 v 6.61523 c 28.886899,0 52.374999,-23.48811 52.374999,-52.374999 0,-28.886888 -23.48811,-52.374999 -52.374999,-52.375 z" /></g></svg>
